<svg width="60" height="60" xmlns="http://www.w3.org/2000/svg">
 <title/>

 <g>
  <title>background</title>
  <rect fill="none" id="canvas_background" height="402" width="582" y="-1" x="-1"/>
 </g>
 <g>
  <title>Layer 1</title>
  <path fill="#7b53ff" id="svg_1" d="m5.86239,52.13762l-3.01539,3.01538a0.50254,0.50254 0 0 1 -0.85868,-0.36872a14.73779,14.73779 0 0 1 6.01168,-10.78428c-0.64813,2.00735 -1.91962,5.76269 -1.99633,7.81223a0.47569,0.47569 0 0 1 -0.14128,0.32539zm36.8317,-32.90874l-2.24683,-1.12341a1.00012,1.00012 0 1 0 -0.89453,1.78906l0.96417,0.48212a31.97083,31.97083 0 0 0 -9.33331,6.78149a12.87811,12.87811 0 0 1 -5.13427,0.84186a0.98943,0.98943 0 0 0 -1.02637,1a1.0082,1.0082 0 0 0 1.07275,1a20.50679,20.50679 0 0 0 3.03186,-0.20117a29.86818,29.86818 0 0 0 -2.884,5.43091c-2.59579,1.67743 -4.29684,1.77026 -7.24356,1.77026a1,1 0 0 0 0,2a15.55133,15.55133 0 0 0 5.65057,-0.72638c-3.57208,5.6217 -7.91125,5.29578 -12.84637,4.91876c-0.60541,-0.04608 -1.22278,-0.08856 -1.84369,-0.12457c5.82086,-13.78333 18.26782,-23.81421 38.38129,-31.12787a1.00016,1.00016 0 0 0 -0.68359,-1.87988c-17.80566,6.4751 -29.78516,15.062 -36.62012,26.44629a1.05026,1.05026 0 0 0 -0.05908,0.0918a43.16253,43.16253 0 0 1 -2.88727,4.2951c-1.98951,-4.49255 -1.95606,-8.27307 -0.85874,-11.41577a10.87328,10.87328 0 0 0 0.86078,2.94537a1,1 0 1 0 1.8125,-0.8457a12.86572,12.86572 0 0 1 -0.9165,-5.56653a25.05725,25.05725 0 0 1 6.838,-6.467a11.00519,11.00519 0 0 0 -1.82778,5.45638a1,1 0 0 0 2,0c0,-0.79663 0.33624,-3.751 4.577,-8.46478a61.86926,61.86926 0 0 1 14.62073,-6.16693l-0.09222,0.18445a1.00012,1.00012 0 0 0 1.78906,0.89453l0.90607,-1.81219c2.70551,-0.72766 5.33826,-1.34235 7.79169,-1.9129a71.66093,71.66093 0 0 0 10.059,-2.79056a0.49861,0.49861 0 0 1 0.64323,0.66838c-3.46592,7.94506 -8.38197,10.87027 -13.60047,13.62888z"/>
 </g>
</svg>