<svg width="144" height="27" viewBox="0 0 144 27" fill="none" xmlns="http://www.w3.org/2000/svg">
<path d="M16.0642 2.00746L20.4983 5.30762L7.48753 22.7888L3.05346 19.4886L16.0642 2.00746Z" fill="#0A014F"/>
<path d="M2.22389 25.2254L7.49146 22.791L3.04377 19.4807L2.22389 25.2254Z" fill="#0A014F"/>
<path d="M28.3869 8.752C29.5549 8.752 30.5549 8.992 31.3869 9.472C32.2349 9.936 32.8909 10.608 33.3549 11.488C33.8189 12.352 34.0509 13.408 34.0509 14.656V16.192H25.4589C25.4909 17.376 25.8189 18.296 26.4429 18.952C27.0669 19.592 27.9309 19.912 29.0349 19.912C29.8829 19.912 30.6349 19.832 31.2909 19.672C31.9629 19.496 32.6509 19.248 33.3549 18.928V21.352C32.7149 21.656 32.0509 21.88 31.3629 22.024C30.6749 22.168 29.8509 22.24 28.8909 22.24C27.6269 22.24 26.4989 22 25.5069 21.52C24.5309 21.024 23.7629 20.28 23.2029 19.288C22.6589 18.296 22.3869 17.064 22.3869 15.592C22.3869 14.104 22.6349 12.856 23.1309 11.848C23.6429 10.824 24.3469 10.056 25.2429 9.544C26.1389 9.016 27.1869 8.752 28.3869 8.752ZM28.3869 10.984C27.5869 10.984 26.9309 11.248 26.4189 11.776C25.9229 12.288 25.6269 13.056 25.5309 14.08H31.1229C31.1229 13.472 31.0189 12.936 30.8109 12.472C30.6189 12.008 30.3229 11.648 29.9229 11.392C29.5229 11.12 29.0109 10.984 28.3869 10.984ZM44.9563 18.232C44.9563 19.096 44.7483 19.832 44.3323 20.44C43.9163 21.032 43.3003 21.48 42.4843 21.784C41.6843 22.088 40.7003 22.24 39.5323 22.24C38.6203 22.24 37.8363 22.176 37.1803 22.048C36.5243 21.92 35.9003 21.72 35.3083 21.448V18.88C35.9483 19.184 36.6603 19.44 37.4443 19.648C38.2283 19.856 38.9563 19.96 39.6283 19.96C40.4603 19.96 41.0603 19.832 41.4283 19.576C41.7963 19.32 41.9803 18.976 41.9803 18.544C41.9803 18.288 41.9083 18.056 41.7643 17.848C41.6203 17.64 41.3403 17.424 40.9243 17.2C40.5083 16.96 39.8763 16.664 39.0283 16.312C38.1963 15.976 37.5003 15.64 36.9403 15.304C36.3963 14.968 35.9803 14.568 35.6923 14.104C35.4203 13.624 35.2843 13.024 35.2843 12.304C35.2843 11.136 35.7483 10.256 36.6763 9.664C37.6043 9.056 38.8283 8.752 40.3483 8.752C41.1483 8.752 41.9003 8.832 42.6043 8.992C43.3243 9.136 44.0443 9.376 44.7643 9.712L43.8043 11.944C43.4043 11.768 43.0043 11.616 42.6043 11.488C42.2203 11.344 41.8283 11.232 41.4283 11.152C41.0443 11.072 40.6523 11.032 40.2523 11.032C39.5963 11.032 39.1003 11.136 38.7643 11.344C38.4283 11.536 38.2603 11.808 38.2603 12.16C38.2603 12.432 38.3403 12.672 38.5003 12.88C38.6763 13.072 38.9723 13.272 39.3883 13.48C39.8203 13.672 40.4283 13.928 41.2122 14.248C41.9963 14.552 42.6603 14.872 43.2043 15.208C43.7643 15.528 44.1963 15.928 44.5003 16.408C44.8043 16.888 44.9563 17.496 44.9563 18.232ZM52.1219 22.24C50.8899 22.24 49.8179 22.008 48.9059 21.544C48.0099 21.064 47.3139 20.336 46.8179 19.36C46.3379 18.368 46.0979 17.104 46.0979 15.568C46.0979 13.968 46.3619 12.672 46.8899 11.68C47.4339 10.672 48.1779 9.936 49.1219 9.472C50.0659 8.992 51.1459 8.752 52.3619 8.752C53.1779 8.752 53.9059 8.832 54.5459 8.992C55.1859 9.152 55.7299 9.344 56.1779 9.568L55.2899 11.944C54.7939 11.752 54.2979 11.592 53.8019 11.464C53.3059 11.32 52.8259 11.248 52.3619 11.248C51.6419 11.248 51.0419 11.408 50.5619 11.728C50.0979 12.048 49.7539 12.528 49.5299 13.168C49.3059 13.792 49.1939 14.584 49.1939 15.544C49.1939 16.472 49.3059 17.248 49.5299 17.872C49.7699 18.496 50.1219 18.968 50.5859 19.288C51.0499 19.592 51.6259 19.744 52.3139 19.744C53.0499 19.744 53.6979 19.656 54.2579 19.48C54.8179 19.304 55.3459 19.064 55.8419 18.76V21.376C55.3459 21.68 54.8099 21.896 54.2339 22.024C53.6739 22.168 52.9699 22.24 52.1219 22.24ZM64.7053 8.752C64.8973 8.752 65.1213 8.76 65.3773 8.776C65.6333 8.792 65.8493 8.824 66.0253 8.872L65.7613 11.68C65.6173 11.648 65.4253 11.624 65.1853 11.608C64.9613 11.576 64.7613 11.56 64.5853 11.56C64.1053 11.56 63.6413 11.64 63.1933 11.8C62.7613 11.944 62.3693 12.168 62.0173 12.472C61.6813 12.76 61.4093 13.136 61.2013 13.6C61.0093 14.064 60.9133 14.616 60.9133 15.256V22H57.8893V8.992H60.2173L60.6493 11.248H60.7933C61.0493 10.784 61.3693 10.368 61.7533 10C62.1373 9.616 62.5773 9.312 63.0733 9.088C63.5853 8.864 64.1293 8.752 64.7053 8.752ZM72.1994 8.752C73.3674 8.752 74.3674 8.992 75.1994 9.472C76.0474 9.936 76.7034 10.608 77.1674 11.488C77.6314 12.352 77.8634 13.408 77.8634 14.656V16.192H69.2714C69.3034 17.376 69.6314 18.296 70.2554 18.952C70.8794 19.592 71.7434 19.912 72.8474 19.912C73.6954 19.912 74.4474 19.832 75.1034 19.672C75.7754 19.496 76.4634 19.248 77.1674 18.928V21.352C76.5274 21.656 75.8634 21.88 75.1754 22.024C74.4874 22.168 73.6634 22.24 72.7034 22.24C71.4394 22.24 70.3114 22 69.3194 21.52C68.3434 21.024 67.5754 20.28 67.0154 19.288C66.4714 18.296 66.1994 17.064 66.1994 15.592C66.1994 14.104 66.4474 12.856 66.9434 11.848C67.4554 10.824 68.1594 10.056 69.0554 9.544C69.9514 9.016 70.9994 8.752 72.1994 8.752ZM72.1994 10.984C71.3994 10.984 70.7434 11.248 70.2314 11.776C69.7354 12.288 69.4394 13.056 69.3434 14.08H74.9354C74.9354 13.472 74.8314 12.936 74.6234 12.472C74.4314 12.008 74.1354 11.648 73.7354 11.392C73.3354 11.12 72.8234 10.984 72.1994 10.984ZM82.444 22L77.5 8.992H80.692L83.284 16.504C83.396 16.808 83.5 17.144 83.596 17.512C83.692 17.864 83.772 18.216 83.836 18.568C83.916 18.904 83.964 19.2 83.98 19.456H84.076C84.108 19.184 84.164 18.88 84.244 18.544C84.324 18.192 84.412 17.84 84.508 17.488C84.62 17.136 84.724 16.808 84.82 16.504L87.412 8.992H90.604L85.66 22H82.444ZM96.7296 8.752C98.4096 8.752 99.6816 9.12 100.546 9.856C101.426 10.576 101.866 11.712 101.866 13.264V22H99.7296L99.1296 20.2H99.0336C98.6656 20.664 98.2816 21.056 97.8816 21.376C97.4976 21.68 97.0496 21.896 96.5376 22.024C96.0416 22.168 95.4336 22.24 94.7136 22.24C93.9456 22.24 93.2496 22.096 92.6256 21.808C92.0176 21.52 91.5376 21.08 91.1856 20.488C90.8336 19.88 90.6576 19.12 90.6576 18.208C90.6576 16.864 91.1456 15.856 92.1216 15.184C93.1136 14.496 94.6096 14.12 96.6096 14.056L98.8656 13.984V13.336C98.8656 12.504 98.6656 11.912 98.2656 11.56C97.8656 11.208 97.3056 11.032 96.5856 11.032C95.9296 11.032 95.2976 11.128 94.6896 11.32C94.0816 11.512 93.4896 11.736 92.9136 11.992L91.9536 9.88C92.5936 9.544 93.3216 9.272 94.1376 9.064C94.9696 8.856 95.8336 8.752 96.7296 8.752ZM97.2816 15.904C95.9536 15.952 95.0336 16.184 94.5216 16.6C94.0096 17 93.7536 17.544 93.7536 18.232C93.7536 18.84 93.9376 19.28 94.3056 19.552C94.6736 19.824 95.1456 19.96 95.7216 19.96C96.6016 19.96 97.3456 19.712 97.9536 19.216C98.5616 18.704 98.8656 17.952 98.8656 16.96V15.856L97.2816 15.904ZM119.559 8.752C121.031 8.752 122.135 9.128 122.871 9.88C123.623 10.632 123.999 11.848 123.999 13.528V22H120.975V14.104C120.975 13.144 120.799 12.424 120.447 11.944C120.095 11.448 119.535 11.2 118.767 11.2C117.711 11.2 116.959 11.544 116.511 12.232C116.063 12.92 115.839 13.92 115.839 15.232V22H112.815V14.104C112.815 13.464 112.735 12.928 112.575 12.496C112.415 12.064 112.167 11.744 111.831 11.536C111.511 11.312 111.095 11.2 110.583 11.2C109.863 11.2 109.287 11.376 108.855 11.728C108.423 12.064 108.119 12.56 107.943 13.216C107.767 13.872 107.679 14.68 107.679 15.64V22H104.655V8.992H106.983L107.415 10.696H107.583C107.855 10.248 108.183 9.88 108.567 9.592C108.967 9.304 109.407 9.096 109.887 8.968C110.383 8.824 110.879 8.752 111.375 8.752C112.351 8.752 113.175 8.92 113.847 9.256C114.519 9.576 115.023 10.08 115.359 10.768H115.599C115.999 10.064 116.559 9.552 117.279 9.232C118.015 8.912 118.775 8.752 119.559 8.752ZM132.02 8.752C133.188 8.752 134.188 8.992 135.02 9.472C135.868 9.936 136.524 10.608 136.988 11.488C137.452 12.352 137.684 13.408 137.684 14.656V16.192H129.092C129.124 17.376 129.452 18.296 130.076 18.952C130.7 19.592 131.564 19.912 132.668 19.912C133.516 19.912 134.268 19.832 134.924 19.672C135.596 19.496 136.284 19.248 136.988 18.928V21.352C136.348 21.656 135.684 21.88 134.996 22.024C134.308 22.168 133.484 22.24 132.524 22.24C131.26 22.24 130.132 22 129.14 21.52C128.164 21.024 127.396 20.28 126.836 19.288C126.292 18.296 126.02 17.064 126.02 15.592C126.02 14.104 126.268 12.856 126.764 11.848C127.276 10.824 127.98 10.056 128.876 9.544C129.772 9.016 130.82 8.752 132.02 8.752ZM132.02 10.984C131.22 10.984 130.564 11.248 130.052 11.776C129.556 12.288 129.26 13.056 129.164 14.08H134.756C134.756 13.472 134.652 12.936 134.444 12.472C134.252 12.008 133.956 11.648 133.556 11.392C133.156 11.12 132.644 10.984 132.02 10.984Z" fill="#0A014F"/>
<rect x="2" y="25" width="14" height="1" rx="0.5" fill="#0A014F"/>
</svg>
