<svg width="148" height="27" viewBox="0 0 148 27" fill="none" xmlns="http://www.w3.org/2000/svg">
<path d="M16.0642 2.00746L20.4983 5.30762L7.48753 22.7888L3.05346 19.4886L16.0642 2.00746Z" fill="black"/>
<path d="M2.22389 25.2254L7.49146 22.791L3.04377 19.4807L2.22389 25.2254Z" fill="black"/>
<path d="M28.6694 8.488C29.9654 8.488 31.0774 8.712 32.0054 9.16C32.9494 9.608 33.6694 10.28 34.1654 11.176C34.6774 12.072 34.9334 13.2 34.9334 14.56V16.6H26.7494C26.7814 17.288 27.0374 17.856 27.5174 18.304C28.0134 18.752 28.7254 18.976 29.6534 18.976C30.4854 18.976 31.2454 18.896 31.9334 18.736C32.6214 18.576 33.3334 18.32 34.0694 17.968V21.256C33.4294 21.592 32.7254 21.84 31.9574 22C31.2054 22.16 30.2534 22.24 29.1014 22.24C27.7574 22.24 26.5574 22.008 25.5014 21.544C24.4614 21.064 23.6374 20.32 23.0294 19.312C22.4214 18.304 22.1174 17.016 22.1174 15.448C22.1174 13.848 22.3894 12.536 22.9334 11.512C23.4934 10.488 24.2614 9.728 25.2374 9.232C26.2294 8.736 27.3734 8.488 28.6694 8.488ZM28.8374 11.608C28.2934 11.608 27.8374 11.776 27.4694 12.112C27.1174 12.448 26.9094 12.984 26.8454 13.72H30.7814C30.7814 13.32 30.7014 12.968 30.5414 12.664C30.3974 12.344 30.1814 12.088 29.8934 11.896C29.6054 11.704 29.2534 11.608 28.8374 11.608ZM46.3933 17.92C46.3933 18.752 46.2013 19.496 45.8173 20.152C45.4493 20.808 44.8493 21.32 44.0173 21.688C43.2013 22.056 42.1213 22.24 40.7773 22.24C39.8333 22.24 38.9853 22.184 38.2333 22.072C37.4973 21.976 36.7453 21.784 35.9773 21.496V17.824C36.8253 18.208 37.6813 18.488 38.5453 18.664C39.4093 18.824 40.0893 18.904 40.5853 18.904C41.0973 18.904 41.4733 18.848 41.7133 18.736C41.9533 18.624 42.0733 18.456 42.0733 18.232C42.0733 18.04 41.9933 17.872 41.8333 17.728C41.6733 17.584 41.3853 17.424 40.9693 17.248C40.5693 17.072 39.9933 16.832 39.2413 16.528C38.5053 16.224 37.8893 15.896 37.3933 15.544C36.9133 15.176 36.5533 14.744 36.3133 14.248C36.0733 13.736 35.9533 13.12 35.9533 12.4C35.9533 11.104 36.4493 10.128 37.4413 9.472C38.4493 8.816 39.7773 8.488 41.4253 8.488C42.3053 8.488 43.1293 8.584 43.8973 8.776C44.6653 8.968 45.4653 9.248 46.2973 9.616L45.0493 12.568C44.6173 12.36 44.1693 12.184 43.7053 12.04C43.2573 11.896 42.8333 11.784 42.4333 11.704C42.0493 11.624 41.7213 11.584 41.4493 11.584C41.0973 11.584 40.8173 11.632 40.6093 11.728C40.4173 11.824 40.3213 11.96 40.3213 12.136C40.3213 12.296 40.3853 12.44 40.5133 12.568C40.6573 12.696 40.9213 12.84 41.3053 13C41.6893 13.16 42.2493 13.392 42.9853 13.696C43.7533 14 44.3853 14.336 44.8813 14.704C45.3933 15.056 45.7693 15.488 46.0093 16C46.2653 16.496 46.3933 17.136 46.3933 17.92ZM53.9758 22.24C52.6318 22.24 51.4638 22 50.4718 21.52C49.4798 21.04 48.7118 20.296 48.1678 19.288C47.6238 18.28 47.3518 16.992 47.3518 15.424C47.3518 13.808 47.6558 12.496 48.2638 11.488C48.8718 10.464 49.6958 9.712 50.7358 9.232C51.7918 8.736 52.9918 8.488 54.3358 8.488C55.1518 8.488 55.9198 8.576 56.6398 8.752C57.3758 8.928 58.0558 9.176 58.6797 9.496L57.3358 12.88C56.7918 12.64 56.2798 12.448 55.7998 12.304C55.3358 12.16 54.8478 12.088 54.3358 12.088C53.8718 12.088 53.4638 12.208 53.1118 12.448C52.7598 12.688 52.4878 13.056 52.2958 13.552C52.1038 14.032 52.0078 14.648 52.0078 15.4C52.0078 16.168 52.1038 16.784 52.2958 17.248C52.5038 17.712 52.7838 18.056 53.1358 18.28C53.4878 18.488 53.8958 18.592 54.3598 18.592C55.0158 18.592 55.6718 18.488 56.3278 18.28C56.9998 18.072 57.6318 17.784 58.2238 17.416V21.064C57.6798 21.416 57.0638 21.704 56.3758 21.928C55.6878 22.136 54.8878 22.24 53.9758 22.24ZM67.8813 8.488C68.1373 8.488 68.4013 8.504 68.6733 8.536C68.9453 8.568 69.1453 8.6 69.2733 8.632L68.8653 12.952C68.7053 12.92 68.5053 12.888 68.2653 12.856C68.0413 12.824 67.7213 12.808 67.3053 12.808C67.0173 12.808 66.7053 12.84 66.3693 12.904C66.0493 12.952 65.7373 13.064 65.4333 13.24C65.1453 13.416 64.9053 13.68 64.7133 14.032C64.5373 14.384 64.4492 14.864 64.4492 15.472V22H59.8652V8.728H63.2733L63.9933 10.84H64.2093C64.4493 10.408 64.7613 10.016 65.1453 9.664C65.5293 9.296 65.9533 9.008 66.4173 8.8C66.8973 8.592 67.3853 8.488 67.8813 8.488ZM75.6225 8.488C76.9185 8.488 78.0305 8.712 78.9585 9.16C79.9025 9.608 80.6225 10.28 81.1185 11.176C81.6305 12.072 81.8865 13.2 81.8865 14.56V16.6H73.7025C73.7345 17.288 73.9905 17.856 74.4705 18.304C74.9665 18.752 75.6785 18.976 76.6065 18.976C77.4385 18.976 78.1985 18.896 78.8865 18.736C79.5745 18.576 80.2865 18.32 81.0225 17.968V21.256C80.3825 21.592 79.6785 21.84 78.9105 22C78.1585 22.16 77.2065 22.24 76.0545 22.24C74.7105 22.24 73.5105 22.008 72.4545 21.544C71.4145 21.064 70.5905 20.32 69.9825 19.312C69.3745 18.304 69.0705 17.016 69.0705 15.448C69.0705 13.848 69.3425 12.536 69.8865 11.512C70.4465 10.488 71.2145 9.728 72.1905 9.232C73.1825 8.736 74.3265 8.488 75.6225 8.488ZM75.7905 11.608C75.2465 11.608 74.7905 11.776 74.4225 12.112C74.0705 12.448 73.8625 12.984 73.7985 13.72H77.7345C77.7345 13.32 77.6545 12.968 77.4945 12.664C77.3505 12.344 77.1345 12.088 76.8465 11.896C76.5585 11.704 76.2065 11.608 75.7905 11.608ZM86.4937 22L81.4297 8.728H86.2057L88.4617 16.576C88.4777 16.624 88.5017 16.728 88.5337 16.888C88.5657 17.032 88.5977 17.2 88.6297 17.392C88.6617 17.568 88.6777 17.744 88.6777 17.92H88.7497C88.7497 17.744 88.7577 17.576 88.7737 17.416C88.8057 17.24 88.8377 17.08 88.8697 16.936C88.9177 16.792 88.9497 16.68 88.9657 16.6L91.3177 8.728H96.0937L91.0297 22H86.4937ZM103.166 8.488C104.846 8.488 106.158 8.904 107.102 9.736C108.046 10.568 108.518 11.752 108.518 13.288V22H105.35L104.462 20.248H104.366C103.998 20.712 103.614 21.096 103.214 21.4C102.83 21.688 102.382 21.896 101.87 22.024C101.358 22.168 100.734 22.24 99.9976 22.24C99.2296 22.24 98.5416 22.088 97.9336 21.784C97.3256 21.464 96.8456 20.992 96.4936 20.368C96.1416 19.728 95.9656 18.92 95.9656 17.944C95.9656 16.52 96.4536 15.464 97.4296 14.776C98.4216 14.088 99.8536 13.704 101.726 13.624L103.934 13.552V13.36C103.934 12.768 103.79 12.352 103.502 12.112C103.214 11.856 102.822 11.728 102.326 11.728C101.798 11.728 101.214 11.824 100.574 12.016C99.9336 12.192 99.2856 12.424 98.6296 12.712L97.3096 9.688C98.0776 9.288 98.9416 8.992 99.9016 8.8C100.878 8.592 101.966 8.488 103.166 8.488ZM102.902 16.12C102.07 16.152 101.478 16.304 101.126 16.576C100.79 16.832 100.622 17.2 100.622 17.68C100.622 18.128 100.742 18.464 100.982 18.688C101.222 18.896 101.542 19 101.942 19C102.502 19 102.974 18.824 103.358 18.472C103.758 18.12 103.958 17.664 103.958 17.104V16.072L102.902 16.12ZM126.839 8.488C128.359 8.488 129.519 8.872 130.319 9.64C131.119 10.408 131.519 11.648 131.519 13.36V22H126.935V14.776C126.935 13.768 126.799 13.072 126.527 12.688C126.255 12.288 125.855 12.088 125.327 12.088C124.591 12.088 124.079 12.416 123.791 13.072C123.503 13.712 123.359 14.624 123.359 15.808V22H118.775V14.776C118.775 14.136 118.719 13.624 118.607 13.24C118.495 12.84 118.327 12.552 118.103 12.376C117.879 12.184 117.591 12.088 117.239 12.088C116.711 12.088 116.295 12.248 115.991 12.568C115.703 12.888 115.503 13.352 115.391 13.96C115.279 14.568 115.223 15.312 115.223 16.192V22H110.639V8.728H114.095L114.767 10.36H114.887C115.127 9.992 115.431 9.672 115.799 9.4C116.167 9.112 116.607 8.888 117.119 8.728C117.631 8.568 118.215 8.488 118.871 8.488C119.847 8.488 120.647 8.656 121.271 8.992C121.911 9.312 122.431 9.76 122.831 10.336H122.975C123.391 9.744 123.927 9.288 124.583 8.968C125.255 8.648 126.007 8.488 126.839 8.488ZM139.615 8.488C140.911 8.488 142.023 8.712 142.951 9.16C143.895 9.608 144.615 10.28 145.111 11.176C145.623 12.072 145.879 13.2 145.879 14.56V16.6H137.695C137.727 17.288 137.983 17.856 138.463 18.304C138.959 18.752 139.671 18.976 140.599 18.976C141.431 18.976 142.191 18.896 142.879 18.736C143.567 18.576 144.279 18.32 145.015 17.968V21.256C144.375 21.592 143.671 21.84 142.903 22C142.151 22.16 141.199 22.24 140.047 22.24C138.703 22.24 137.503 22.008 136.447 21.544C135.407 21.064 134.583 20.32 133.975 19.312C133.367 18.304 133.063 17.016 133.063 15.448C133.063 13.848 133.335 12.536 133.879 11.512C134.439 10.488 135.207 9.728 136.183 9.232C137.175 8.736 138.319 8.488 139.615 8.488ZM139.783 11.608C139.239 11.608 138.783 11.776 138.415 12.112C138.063 12.448 137.855 12.984 137.791 13.72H141.727C141.727 13.32 141.647 12.968 141.487 12.664C141.343 12.344 141.127 12.088 140.839 11.896C140.551 11.704 140.199 11.608 139.783 11.608Z" fill="black"/>
<rect x="2" y="25" width="14" height="1" rx="0.5" fill="black"/>
</svg>
