<svg width="1991" height="410" viewBox="0 0 1991 410" fill="none" xmlns="http://www.w3.org/2000/svg">
<circle cx="205" cy="205" r="205" fill="white"/>
<path d="M105.326 249.07L271.496 82.8995C274.62 79.7753 279.686 79.7753 282.81 82.8995L328.065 128.154C331.189 131.279 331.189 136.344 328.065 139.468L161.894 305.638L105.326 249.07Z" fill="#7B53FF"/>
<path d="M85.5269 325.437L105.087 249.538L161.426 305.877L85.5269 325.437Z" fill="#7B53FF"/>
<path d="M633.872 291.952C636.23 291.952 638.134 292.768 639.584 294.4C641.216 296.032 642.032 297.936 642.032 300.112C642.032 302.469 641.216 304.373 639.584 305.824C638.134 307.275 636.23 308 633.872 308H534.048C531.691 308 529.696 307.275 528.064 305.824C526.614 304.192 525.888 302.197 525.888 299.84V125.76C525.888 123.403 526.614 121.499 528.064 120.048C529.696 118.416 531.691 117.6 534.048 117.6H633.872C636.23 117.6 638.134 118.416 639.584 120.048C641.216 121.499 642.032 123.403 642.032 125.76C642.032 128.117 641.216 130.021 639.584 131.472C638.134 132.923 636.23 133.648 633.872 133.648H543.024V201.92H621.632C623.99 201.92 625.894 202.736 627.344 204.368C628.976 205.819 629.792 207.723 629.792 210.08C629.792 212.437 628.976 214.341 627.344 215.792C625.894 217.243 623.99 217.968 621.632 217.968H543.024V291.952H633.872ZM668.514 285.968C667.063 283.611 666.338 281.616 666.338 279.984C666.338 277.627 667.517 275.813 669.874 274.544C670.962 273.456 672.413 272.912 674.226 272.912C676.402 272.912 678.397 273.819 680.21 275.632C690.909 289.776 705.143 296.848 722.914 296.848C731.618 296.848 739.143 294.853 745.49 290.864C752.018 286.693 755.282 280.709 755.282 272.912C755.282 265.296 752.29 259.584 746.306 255.776C740.322 251.968 731.981 248.704 721.282 245.984C706.231 242.176 694.445 237.28 685.922 231.296C677.399 225.131 673.138 216.155 673.138 204.368C673.138 196.933 675.223 190.315 679.394 184.512C683.565 178.528 689.186 173.904 696.258 170.64C703.511 167.376 711.671 165.744 720.738 165.744C728.535 165.744 736.333 167.285 744.13 170.368C752.109 173.269 758.909 177.984 764.53 184.512C766.162 185.781 766.978 187.595 766.978 189.952C766.978 192.128 766.071 194.032 764.258 195.664C762.989 196.752 761.357 197.296 759.362 197.296C757.549 197.296 755.917 196.571 754.466 195.12C750.114 190.224 744.946 186.507 738.962 183.968C732.978 181.429 726.541 180.16 719.65 180.16C711.127 180.16 703.783 182.155 697.618 186.144C691.634 190.133 688.642 196.117 688.642 204.096C689.005 211.349 692.269 216.88 698.434 220.688C704.781 224.496 714.029 227.941 726.178 231.024C735.607 233.381 743.405 236.011 749.57 238.912C755.735 241.813 760.722 245.893 764.53 251.152C768.519 256.411 770.514 263.392 770.514 272.096C770.514 283.883 765.799 293.312 756.37 300.384C746.941 307.275 735.245 310.72 721.282 310.72C699.159 310.72 681.57 302.469 668.514 285.968ZM864.014 165.744C872.537 165.744 880.425 166.741 887.678 168.736C895.113 170.549 901.006 173.088 905.358 176.352C909.891 179.616 912.158 183.152 912.158 186.96C912.158 188.955 911.433 190.768 909.982 192.4C908.713 194.032 907.081 194.848 905.086 194.848C903.273 194.848 901.731 194.485 900.462 193.76C899.374 193.035 898.105 191.947 896.654 190.496C894.297 188.139 892.03 186.416 889.854 185.328C887.134 184.059 883.507 183.061 878.974 182.336C874.622 181.429 869.907 180.976 864.83 180.976C854.857 180.976 845.699 183.515 837.358 188.592C829.198 193.669 822.761 200.56 818.046 209.264C813.331 217.968 810.974 227.579 810.974 238.096C810.974 248.976 813.241 258.768 817.774 267.472C822.307 276.176 828.563 283.067 836.542 288.144C844.702 293.04 853.95 295.488 864.286 295.488C870.814 295.488 875.982 294.944 879.79 293.856C883.779 292.768 887.678 291.227 891.486 289.232C892.755 288.507 894.931 286.875 898.014 284.336C899.465 283.067 900.734 282.16 901.822 281.616C902.91 280.891 904.089 280.528 905.358 280.528C907.534 280.528 909.257 281.253 910.526 282.704C911.795 283.973 912.43 285.696 912.43 287.872C912.43 290.955 910.254 294.309 905.902 297.936C901.55 301.381 895.566 304.373 887.95 306.912C880.334 309.451 871.902 310.72 862.654 310.72C849.417 310.72 837.63 307.637 827.294 301.472C816.958 295.125 808.889 286.421 803.086 275.36C797.465 264.299 794.654 251.877 794.654 238.096C794.654 224.859 797.555 212.8 803.358 201.92C809.161 190.859 817.321 182.064 827.838 175.536C838.355 169.008 850.414 165.744 864.014 165.744ZM1008.63 165.744C1012.26 165.744 1015.52 166.469 1018.42 167.92C1021.32 169.371 1022.77 171.547 1022.77 174.448C1022.77 176.987 1022.05 179.072 1020.6 180.704C1019.15 182.155 1017.42 182.88 1015.43 182.88C1014.52 182.88 1012.71 182.427 1009.99 181.52C1007.45 180.613 1005 180.16 1002.64 180.16C995.935 180.16 989.226 182.789 982.517 188.048C975.989 193.125 970.549 199.744 966.197 207.904C962.026 216.064 959.941 224.315 959.941 232.656V299.84C959.941 302.197 959.125 304.192 957.493 305.824C956.042 307.275 954.138 308 951.781 308C949.423 308 947.429 307.275 945.797 305.824C944.346 304.192 943.621 302.197 943.621 299.84V177.984C943.621 175.627 944.346 173.723 945.797 172.272C947.429 170.64 949.423 169.824 951.781 169.824C954.138 169.824 956.042 170.64 957.493 172.272C959.125 173.723 959.941 175.627 959.941 177.984V201.92C964.111 191.584 970.367 183.061 978.709 176.352C987.231 169.461 997.205 165.925 1008.63 165.744ZM1159.67 230.48C1159.67 232.656 1158.86 234.56 1157.22 236.192C1155.59 237.643 1153.69 238.368 1151.51 238.368H1048.7C1048.7 249.248 1050.87 259.04 1055.22 267.744C1059.76 276.267 1066.1 283.067 1074.26 288.144C1082.61 293.04 1092.4 295.488 1103.64 295.488C1112.34 295.488 1120.14 293.675 1127.03 290.048C1133.92 286.421 1139.45 281.797 1143.62 276.176C1145.62 274.544 1147.52 273.728 1149.34 273.728C1151.15 273.728 1152.78 274.453 1154.23 275.904C1155.68 277.355 1156.41 278.987 1156.41 280.8C1156.41 282.795 1155.5 284.699 1153.69 286.512C1147.89 293.584 1140.54 299.387 1131.66 303.92C1122.95 308.453 1113.7 310.72 1103.91 310.72C1089.95 310.72 1077.62 307.728 1066.92 301.744C1056.22 295.76 1047.88 287.419 1041.9 276.72C1035.91 265.84 1032.92 253.328 1032.92 239.184C1032.92 224.315 1035.82 211.349 1041.62 200.288C1047.61 189.045 1055.5 180.523 1065.29 174.72C1075.08 168.736 1085.51 165.744 1096.57 165.744C1107.45 165.744 1117.6 168.283 1127.03 173.36C1136.64 178.437 1144.44 185.872 1150.42 195.664C1156.41 205.456 1159.49 217.061 1159.67 230.48ZM1096.57 181.52C1086.05 181.52 1076.26 185.147 1067.19 192.4C1058.31 199.653 1052.59 210.08 1050.06 223.68H1142.81V221.504C1141.9 213.344 1139.18 206.272 1134.65 200.288C1130.11 194.123 1124.4 189.499 1117.51 186.416C1110.8 183.152 1103.82 181.52 1096.57 181.52ZM1296.97 166.288C1298.79 166.288 1300.51 166.923 1302.14 168.192C1303.77 169.461 1304.59 171.093 1304.59 173.088C1304.59 174.72 1304.23 176.261 1303.5 177.712L1250.19 302.832C1249.46 304.283 1248.37 305.552 1246.92 306.64C1245.65 307.547 1244.29 308 1242.84 308C1241.03 308.181 1239.4 307.819 1237.95 306.912C1236.5 306.005 1235.41 304.645 1234.68 302.832L1181.1 177.712C1181.1 177.349 1180.92 176.805 1180.56 176.08C1180.37 175.355 1180.28 174.629 1180.28 173.904C1180.28 171.728 1181.01 169.915 1182.46 168.464C1183.91 166.832 1186 166.016 1188.72 166.016C1190.35 166.016 1191.8 166.56 1193.07 167.648C1194.52 168.555 1195.61 169.824 1196.33 171.456L1242.57 281.616L1289.08 171.456C1289.81 169.824 1290.81 168.555 1292.08 167.648C1293.53 166.56 1295.16 166.107 1296.97 166.288ZM1448.3 169.008C1450.66 169.008 1452.56 169.824 1454.01 171.456C1455.64 173.088 1456.46 175.083 1456.46 177.44V299.84C1456.46 302.197 1455.64 304.192 1454.01 305.824C1452.56 307.275 1450.66 308 1448.3 308C1445.94 308 1443.95 307.275 1442.31 305.824C1440.86 304.192 1440.14 302.197 1440.14 299.84V281.616C1435.6 289.776 1428.8 296.667 1419.74 302.288C1410.67 307.909 1400.79 310.72 1390.09 310.72C1377.94 310.72 1366.97 307.547 1357.18 301.2C1347.57 294.853 1339.95 286.149 1334.33 275.088C1328.89 264.027 1326.17 251.605 1326.17 237.824C1326.17 224.043 1328.98 211.712 1334.6 200.832C1340.22 189.771 1347.84 181.157 1357.45 174.992C1367.24 168.827 1378.03 165.744 1389.82 165.744C1400.7 165.744 1410.67 168.373 1419.74 173.632C1428.8 178.891 1435.6 185.781 1440.14 194.304V177.44C1440.14 175.083 1440.86 173.088 1442.31 171.456C1443.95 169.824 1445.94 169.008 1448.3 169.008ZM1391.72 295.488C1401.15 295.488 1409.58 293.04 1417.02 288.144C1424.63 283.067 1430.53 276.176 1434.7 267.472C1439.05 258.587 1441.23 248.704 1441.23 237.824C1441.23 227.307 1439.05 217.696 1434.7 208.992C1430.53 200.288 1424.63 193.488 1417.02 188.592C1409.58 183.515 1401.15 180.976 1391.72 180.976C1382.29 180.976 1373.77 183.424 1366.15 188.32C1358.72 193.216 1352.83 200.016 1348.47 208.72C1344.3 217.243 1342.22 226.944 1342.22 237.824C1342.22 248.704 1344.3 258.587 1348.47 267.472C1352.64 276.176 1358.45 283.067 1365.88 288.144C1373.5 293.04 1382.11 295.488 1391.72 295.488ZM1669.04 117.6C1671.22 117.6 1673.03 118.416 1674.48 120.048C1676.11 121.499 1676.93 123.403 1676.93 125.76V299.84C1676.93 302.197 1676.11 304.192 1674.48 305.824C1672.85 307.275 1670.86 308 1668.5 308C1665.96 308 1663.87 307.275 1662.24 305.824C1660.61 304.192 1659.79 302.197 1659.79 299.84V150.24L1595.87 247.072C1594.06 249.429 1591.98 250.517 1589.62 250.336H1589.07C1586.9 250.336 1584.9 249.248 1583.09 247.072L1519.17 149.696V299.84C1519.17 302.197 1518.35 304.192 1516.72 305.824C1515.27 307.275 1513.37 308 1511.01 308C1508.65 308 1506.75 307.275 1505.3 305.824C1503.85 304.192 1503.12 302.197 1503.12 299.84V125.76C1503.12 123.584 1503.85 121.68 1505.3 120.048C1506.93 118.416 1508.93 117.6 1511.28 117.6C1512.55 117.6 1513.91 117.963 1515.36 118.688C1516.81 119.232 1517.9 120.048 1518.63 121.136L1589.89 228.032L1661.7 121.136C1663.69 118.416 1666.14 117.237 1669.04 117.6ZM1841.53 230.48C1841.53 232.656 1840.72 234.56 1839.08 236.192C1837.45 237.643 1835.55 238.368 1833.37 238.368H1730.56C1730.56 249.248 1732.73 259.04 1737.08 267.744C1741.62 276.267 1747.96 283.067 1756.12 288.144C1764.46 293.04 1774.26 295.488 1785.5 295.488C1794.2 295.488 1802 293.675 1808.89 290.048C1815.78 286.421 1821.31 281.797 1825.48 276.176C1827.48 274.544 1829.38 273.728 1831.2 273.728C1833.01 273.728 1834.64 274.453 1836.09 275.904C1837.54 277.355 1838.27 278.987 1838.27 280.8C1838.27 282.795 1837.36 284.699 1835.55 286.512C1829.74 293.584 1822.4 299.387 1813.52 303.92C1804.81 308.453 1795.56 310.72 1785.77 310.72C1771.81 310.72 1759.48 307.728 1748.78 301.744C1738.08 295.76 1729.74 287.419 1723.76 276.72C1717.77 265.84 1714.78 253.328 1714.78 239.184C1714.78 224.315 1717.68 211.349 1723.48 200.288C1729.47 189.045 1737.36 180.523 1747.15 174.72C1756.94 168.736 1767.37 165.744 1778.43 165.744C1789.31 165.744 1799.46 168.283 1808.89 173.36C1818.5 178.437 1826.3 185.872 1832.28 195.664C1838.27 205.456 1841.35 217.061 1841.53 230.48ZM1778.43 181.52C1767.91 181.52 1758.12 185.147 1749.05 192.4C1740.17 199.653 1734.45 210.08 1731.92 223.68H1824.67V221.504C1823.76 213.344 1821.04 206.272 1816.51 200.288C1811.97 194.123 1806.26 189.499 1799.37 186.416C1792.66 183.152 1785.68 181.52 1778.43 181.52Z" fill="#7B53FF"/>
</svg>
